<?xml version="1.0"?><svg width="620" height="580" xmlns="http://www.w3.org/2000/svg">
 <title>ice cream silhouette</title>

 <metadata id="metadata16">image/svg+xml</metadata>
 <g>
  <title>Layer 1</title>
  <path d="m214.441147,213.747391c0,21.696899 -19.187805,39.285706 -42.857162,39.285706c-23.669327,0 -42.857132,-17.588806 -42.857132,-39.285706c0,-21.696899 19.187805,-39.285706 42.857132,-39.285706c23.669357,0 42.857162,17.588806 42.857162,39.285706l0,0z" id="path2387" stroke-dashoffset="0" stroke-miterlimit="4" stroke-linejoin="round" stroke-linecap="round" stroke-width="5.798" fill-rule="evenodd" fill="#ffaaaa"/>
  <path d="m267.86972,214.46167c0,21.696899 -19.187805,39.285706 -42.857147,39.285706c-23.669342,0 -42.857147,-17.588806 -42.857147,-39.285706c0,-21.696899 19.187805,-39.285706 42.857147,-39.285706c23.669342,0 42.857147,17.588806 42.857147,39.285706l0,0z" id="path2389" stroke-dashoffset="0" stroke-miterlimit="4" stroke-linejoin="round" stroke-linecap="round" stroke-width="5.798" fill-rule="evenodd" fill="#ffaaaa"/>
  <path d="m317.584015,215.533096c0,21.696899 -19.187805,39.285721 -42.857178,39.285721c-23.669327,0 -42.857132,-17.588821 -42.857132,-39.285721c0,-21.696899 19.187805,-39.285706 42.857132,-39.285706c23.669373,0 42.857178,17.588806 42.857178,39.285706l0,0z" id="path2391" stroke-dashoffset="0" stroke-miterlimit="4" stroke-linejoin="round" stroke-linecap="round" stroke-width="5.798" fill-rule="evenodd" fill="#ffaaaa"/>
  <path d="m370.012573,216.247375c0,21.696899 -19.187805,39.285721 -42.857147,39.285721c-23.669342,0 -42.857147,-17.588821 -42.857147,-39.285721c0,-21.696899 19.187805,-39.285706 42.857147,-39.285706c23.669342,0 42.857147,17.588806 42.857147,39.285706l0,0z" id="path2393" stroke-dashoffset="0" stroke-miterlimit="4" stroke-linejoin="round" stroke-linecap="round" stroke-width="5.798" fill-rule="evenodd" fill="#ffaaaa"/>
  <path d="m417.298279,216.390244c0,21.696899 -19.187805,39.285706 -42.857147,39.285706c-23.669342,0 -42.857147,-17.588806 -42.857147,-39.285706c0,-21.696899 19.187805,-39.285721 42.857147,-39.285721c23.669342,0 42.857147,17.588821 42.857147,39.285721l0,0z" id="path2395" stroke-dashoffset="0" stroke-miterlimit="4" stroke-linejoin="round" stroke-linecap="round" stroke-width="5.798" fill-rule="evenodd" fill="#ffaaaa"/>
  <path d="m469.726868,217.104523c0,21.696899 -19.187805,39.285706 -42.857147,39.285706c-23.669342,0 -42.857147,-17.588806 -42.857147,-39.285706c0,-21.696899 19.187805,-39.285706 42.857147,-39.285706c23.669342,0 42.857147,17.588806 42.857147,39.285706l0,0z" id="path2397" stroke-dashoffset="0" stroke-miterlimit="4" stroke-linejoin="round" stroke-linecap="round" stroke-width="5.798" fill-rule="evenodd" fill="#ffaaaa"/>
  <path d="m177.091019,267.397247l112.402267,273.486847l12.239685,5.627258l118.058289,-277.200806l-242.700241,-1.9133z" id="path2422" stroke-width="1.156907px" stroke="#ffffff" fill-rule="evenodd" fill="#d16c0e"/>
  <path d="m299.812347,34.38306c-81.72641,0 -148.042191,68.23431 -148.042191,152.312496c0,4.667374 0.220444,9.282974 0.620529,13.84375l294.872864,0c0.400085,-4.560776 0.620544,-9.176376 0.620544,-13.84375c0,-84.078186 -66.345306,-152.312496 -148.071747,-152.312496z" id="path2407" stroke-dashoffset="0" stroke-miterlimit="4" stroke-linejoin="round" stroke-linecap="round" stroke-width="0.7" fill-rule="evenodd" fill="#ff5656"/>
 </g>
</svg>